<svg aria-hidden="true" style="position:absolute;width:0;height:0;overflow:hidden" xmlns="http://www.w3.org/2000/svg">
    <defs>
        <symbol id="twitter" viewBox="0 0 37 32">
            <path d="M36.733 4.722c-1.357.6-2.797.995-4.27 1.17a7.46 7.46 0 0 0 3.271-4.114 14.827 14.827 0 0 1-4.722 1.804 7.44 7.44 0 0 0-8.94-1.479 7.44 7.44 0 0 0-3.729 8.259A21.096 21.096 0 0 1 3.019 2.593a7.406 7.406 0 0 0-1.006 3.739A7.432 7.432 0 0 0 5.32 12.52a7.406 7.406 0 0 1-3.367-.93v.092a7.443 7.443 0 0 0 5.965 7.29 7.48 7.48 0 0 1-3.36.128 7.442 7.442 0 0 0 6.946 5.164A14.916 14.916 0 0 1 .497 27.343a21.028 21.028 0 0 0 11.396 3.342c13.676 0 21.156-11.33 21.156-21.155 0-.32-.009-.644-.023-.96a15.102 15.102 0 0 0 3.71-3.849l-.002-.002z"/>
        </symbol>
        <symbol id="youtube" viewBox="0 0 37 32">
            <path d="M35.632 6.219c.812 3.168.812 9.781.812 9.781s0 6.613-.812 9.781c-.452 1.751-1.773 3.129-3.445 3.595-3.038.846-13.52.846-13.52.846s-10.476 0-13.52-.846c-1.68-.473-2.999-1.849-3.445-3.595C.89 22.613.89 16 .89 16s0-6.613.812-9.781c.452-1.751 1.772-3.129 3.445-3.595 3.044-.846 13.52-.846 13.52-.846s10.482 0 13.52.846c1.68.473 2.999 1.849 3.445 3.595zM15.111 22.222 25.778 16 15.111 9.778v12.444z"/>
        </symbol>
        <symbol id="ball" viewBox="0 0 32 32">
            <path d="M28.174 15.348a12.127 12.127 0 0 0-2.397-6.63c-.438.472-.906.915-1.402 1.326a20.034 20.034 0 0 1-5.048 3.063c.255.533.488 1.05.693 1.538v.005c.058.136.114.273.168.411 2.307-.259 4.739-.165 7.096.154.314.043.609.088.89.134zM13.873 3.995a70.37 70.37 0 0 1 4.102 6.507c1.864-.734 3.404-1.661 4.645-2.693.431-.355.836-.739 1.213-1.15a12.144 12.144 0 0 0-7.832-2.85c-.713 0-1.425.061-2.127.184v.002zm-9.678 8.953a44.856 44.856 0 0 0 3.109-.187 47.915 47.915 0 0 0 7.409-1.253 83.114 83.114 0 0 0-4.114-6.441 12.22 12.22 0 0 0-6.403 7.881zm2.332 10.724a21.732 21.732 0 0 1 2.4-2.894c2.216-2.27 4.831-4.038 7.857-5.013l.094-.027a36.48 36.48 0 0 0-.725-1.516c-2.798.815-5.745 1.324-8.681 1.588-1.432.13-2.717.186-3.662.195a12.138 12.138 0 0 0 2.718 7.668h-.002zm14.052 3.627a54.756 54.756 0 0 0-2.487-8.699c-3.051 1.108-5.481 2.728-7.36 4.66a14.885 14.885 0 0 0-2.007 2.522A12.131 12.131 0 0 0 16 28.191a12.161 12.161 0 0 0 4.579-.888V27.3zm2.854-1.638c2.379-1.829 4-4.471 4.552-7.421a18.586 18.586 0 0 0-1.897-.36 18.328 18.328 0 0 0-4.846-.05 59.89 59.89 0 0 1 2.191 7.832v-.001zM16 31.238C7.584 31.238.762 24.416.762 16S7.584.762 16 .762 31.238 7.584 31.238 16 24.416 31.238 16 31.238z"/>
        </symbol>
        <symbol id="be" viewBox="0 0 51 32">
            <path d="M15.878 1.813c1.363 0 2.624.107 3.776.422a8.165 8.165 0 0 1 2.938 1.161c.841.527 1.47 1.267 1.888 2.217.42.949.629 2.112.629 3.377 0 1.478-.314 2.743-1.047 3.693-.629.951-1.679 1.794-2.938 2.428 1.784.529 3.147 1.478 3.985 2.743.84 1.267 1.365 2.85 1.365 4.644 0 1.478-.316 2.743-.84 3.799a7 7 0 0 1-2.308 2.639 10.838 10.838 0 0 1-3.356 1.476c-1.259.318-2.517.529-3.776.529H2.133V1.812h13.745zm-.84 11.819c1.154 0 2.099-.316 2.833-.843s1.05-1.478 1.05-2.639c0-.634-.107-1.267-.316-1.687-.209-.422-.525-.74-.943-1.056-.42-.211-.84-.422-1.365-.527-.525-.107-1.047-.107-1.679-.107H8.534v6.861l6.505-.002zm.316 12.454c.629 0 1.259-.107 1.783-.211a3.668 3.668 0 0 0 1.468-.634 3.771 3.771 0 0 0 1.05-1.16c.209-.527.42-1.161.42-1.899 0-1.478-.42-2.534-1.259-3.273-.841-.634-1.995-.949-3.358-.949H8.533v8.128l6.82-.002zm20.249-.106c.838.845 2.097 1.267 3.776 1.267 1.154 0 2.204-.316 3.042-.843.84-.634 1.365-1.267 1.574-1.901h5.141c-.84 2.532-2.099 4.326-3.776 5.487-1.681 1.056-3.674 1.69-6.086 1.69a12.26 12.26 0 0 1-4.512-.845 8.39 8.39 0 0 1-3.358-2.321 8.383 8.383 0 0 1-2.097-3.484c-.525-1.372-.736-2.848-.736-4.538 0-1.583.211-3.059.736-4.433a11.395 11.395 0 0 1 2.202-3.588c.945-.949 2.099-1.792 3.358-2.321a11.717 11.717 0 0 1 4.407-.845c1.784 0 3.358.318 4.721 1.056 1.365.738 2.413 1.583 3.253 2.85a12.809 12.809 0 0 1 1.888 4.011c.209 1.476.314 2.955.209 4.642H34.132c0 1.69.629 3.273 1.47 4.117v-.002zm6.609-11.081c-.734-.738-1.888-1.161-3.253-1.161-.943 0-1.679.211-2.308.527-.629.318-1.047.74-1.468 1.163a2.82 2.82 0 0 0-.734 1.476c-.107.529-.211.949-.211 1.372h9.442c-.209-1.583-.734-2.637-1.468-3.377zm-9.233-11.08h11.75v2.85H32.981v-2.85h-.002z"/>
        </symbol>
        <symbol id="bottom" viewBox="0 0 53 32" >
            <path d="M26.667 32 4.038 9.371l7.547-7.541 15.083 15.088L41.751 1.83l7.547 7.541L26.669 32z"/>
        </symbol>
        <symbol id="clock" viewBox="0 0 32 32">
            <path d="M16 31.238C7.584 31.238.762 24.416.762 16S7.584.762 16 .762 31.238 7.584 31.238 16 24.416 31.238 16 31.238zm0-3.048a12.189 12.189 0 0 0 8.62-20.81A12.192 12.192 0 1 0 16 28.19zM17.524 16h6.095v3.048h-9.143V8.381h3.048V16z"/>
        </symbol>
        <symbol id="facebook" viewBox="0 0 18 32">
            <path d="M12.19 18.286H16l1.524-6.095h-5.333V9.143c0-1.57 0-3.048 3.048-3.048h2.286V.975c-.497-.066-2.373-.213-4.354-.213-4.137 0-7.075 2.525-7.075 7.162v4.267H1.525v6.095h4.571v12.952h6.095V18.286z"/>
        </symbol>
        <symbol id="instagram" viewBox="0 0 32 32">
            <path d="M16 .762c4.14 0 4.657.015 6.281.091 1.623.076 2.728.331 3.7.709a7.42 7.42 0 0 1 2.7 1.757 7.484 7.484 0 0 1 1.757 2.7c.376.971.632 2.077.709 3.7.072 1.624.091 2.141.091 6.281s-.015 4.657-.091 6.281c-.076 1.623-.332 2.728-.709 3.7a7.428 7.428 0 0 1-1.757 2.7 7.484 7.484 0 0 1-2.7 1.757c-.971.376-2.077.632-3.7.709-1.624.072-2.141.091-6.281.091s-4.657-.015-6.281-.091c-1.623-.076-2.728-.332-3.7-.709a7.463 7.463 0 0 1-2.7-1.757 7.471 7.471 0 0 1-1.757-2.7c-.378-.971-.632-2.077-.709-3.7C.781 20.657.762 20.14.762 16s.015-4.657.091-6.281c.076-1.624.331-2.728.709-3.7a7.428 7.428 0 0 1 1.757-2.7 7.463 7.463 0 0 1 2.7-1.757c.972-.378 2.075-.632 3.7-.709C11.343.781 11.86.762 16 .762zm0 7.619A7.623 7.623 0 0 0 8.381 16 7.623 7.623 0 0 0 16 23.619 7.623 7.623 0 0 0 23.619 16 7.623 7.623 0 0 0 16 8.381zM25.905 8a1.906 1.906 0 1 0-3.812.001A1.906 1.906 0 0 0 25.905 8zM16 11.428a4.572 4.572 0 1 1-.001 9.144A4.572 4.572 0 0 1 16 11.428z"/>
        </symbol>
        <symbol id="left" viewBox="0 0 19 32">
            <path d="M0 16 13.578 2.422l4.525 4.528L9.05 16l9.053 9.05-4.525 4.528L0 16z"/>
        </symbol>
        <symbol id="loup" viewBox="0 0 32 32">
            <path d="m23.318 21.261 6.23 6.228-2.058 2.058-6.228-6.23a13.032 13.032 0 0 1-8.17 2.864C5.866 26.181.001 20.316.001 13.09S5.866-.001 13.092-.001c7.226 0 13.091 5.865 13.091 13.091a13.032 13.032 0 0 1-2.864 8.17zM20.4 20.182a10.149 10.149 0 0 0 2.873-7.091A10.18 10.18 0 0 0 13.091 2.909 10.179 10.179 0 0 0 2.909 13.091a10.18 10.18 0 0 0 10.182 10.182 10.149 10.149 0 0 0 7.091-2.873l.218-.218z"/>
        </symbol>
        <symbol id="right" viewBox="0 0 19 32">
            <path d="M19.2 16 5.622 29.578 1.097 25.05 10.15 16 1.097 6.95l4.525-4.528L19.2 16z"/>
        </symbol>
        <symbol id="sun" viewBox="0 0 37 32">
            <path d="M9.269 19.81c-.22-1.311-.152-2.653.199-3.935s.978-2.471 1.837-3.486a9.146 9.146 0 0 1 13.96 0 9.154 9.154 0 0 1 2.037 7.421H9.269zm-6.221 3.047h15.238v3.048H3.048v-3.048zm18.285 0h12.191v3.048H21.333v-3.048zm3.048 6.095h6.095V32h-6.095v-3.048zm-18.286 0h15.238V32H6.095v-3.048zM16.762 1.524h3.048v4.571h-3.048V1.524zM5.356 7.511l2.155-2.155 3.232 3.232-2.155 2.155-3.232-3.232zm23.703-2.155 2.154 2.155-3.232 3.232-2.154-2.155 3.232-3.232zm5.989 11.406v3.048h-4.571v-3.048h4.571zm-28.953 0v3.048H1.524v-3.048h4.571z"/>
        </symbol>
        <symbol id="icon-Vector" viewBox="0 0 53 32">
            <path fill="#fff" style="fill: var(--color1, #fff)" d="M26.667 32l-22.629-22.629 7.547-7.541 15.083 15.088 15.083-15.088 7.547 7.541-22.629 22.629z"></path>
        </symbol>
    </defs>
</svg>
